<svg xmlns="http://www.w3.org/2000/svg" version="1.1" xmlns:xlink="http://www.w3.org/1999/xlink" xmlns:svgjs="http://svgjs.dev/svgjs" width="1500" height="537" viewBox="0 0 1500 537"><g transform="matrix(1,0,0,1,-0.9090909090909918,-0.6267026591682452)"><svg viewBox="0 0 396 142" data-background-color="#ffffff" preserveAspectRatio="xMidYMid meet" height="537" width="1500" xmlns="http://www.w3.org/2000/svg" xmlns:xlink="http://www.w3.org/1999/xlink"><g id="tight-bounds" transform="matrix(1,0,0,1,0.2400000000000091,0.16572025624188313)"><svg viewBox="0 0 395.52 141.6685594875162" height="141.6685594875162" width="395.52"><g><svg viewBox="0 0 395.52 141.6685594875162" height="141.6685594875162" width="395.52"><g transform="matrix(1,0,0,1,0,87.55685322401729)"><svg viewBox="0 0 395.52 54.111706263498924" height="54.111706263498924" width="395.52"><g id="textblocktransform"><svg viewBox="0 0 395.52 54.111706263498924" height="54.111706263498924" width="395.52" id="textblock"><g><svg viewBox="0 0 395.52 54.111706263498924" height="54.111706263498924" width="395.52"><g transform="matrix(1,0,0,1,0,0)"><svg width="395.52" viewBox="1.76 -37.99 361.69 49.49" height="54.111706263498924" data-palette-color="#5969ff"><path d="M35.01-27.25L29.76-27.25Q28.13-30.03 25.43-31.62 22.73-33.2 19.41-33.2L19.41-33.2Q16.58-33.2 14.23-32.01 11.89-30.81 10.22-28.8 8.54-26.78 7.62-24.13 6.69-21.48 6.69-18.55L6.69-18.55Q6.69-15.09 7.71-12.41 8.74-9.74 10.39-7.97 12.04-6.2 14.31-5.02 16.58-3.83 19.41-3.83L19.41-3.83Q23.27-3.83 26.12-5.7 28.98-7.57 31.01-11.84L31.01-11.84 35.3-9.81Q34.38-7.18 32.15-4.72 29.93-2.27 26.67-0.77 23.41 0.73 19.46 0.73L19.46 0.73Q15.67 0.73 12.5-0.7 9.33-2.12 6.85-4.76 4.37-7.4 3.06-11.01 1.76-14.62 1.76-18.55L1.76-18.55Q1.76-22.51 3.06-26.03 4.37-29.54 6.73-32.14 9.08-34.74 12.34-36.24 15.6-37.74 19.41-37.74L19.41-37.74Q22.8-37.74 25.27-36.78 27.73-35.82 29.46-34.48 31.18-33.15 32.42-31.59L32.42-31.59 35.01-31.59 35.01-27.25ZM38.94-12.65L38.94-12.65Q38.96-15.65 39.9-18.12 40.84-20.58 42.53-22.35 44.21-24.12 46.53-25.07 48.85-26.03 51.63-26.03L51.63-26.03Q54.44-26.03 56.77-25.07 59.1-24.12 60.76-22.38 62.42-20.63 63.35-18.16 64.28-15.7 64.28-12.7L64.28-12.7Q64.28-9.74 63.35-7.26 62.42-4.79 60.76-3 59.1-1.22 56.77-0.23 54.44 0.76 51.63 0.76L51.63 0.76Q48.78 0.76 46.46-0.22 44.14-1.2 42.48-2.97 40.82-4.74 39.89-7.2 38.96-9.67 38.94-12.65ZM43.75-12.65L43.75-12.65Q43.75-10.47 44.37-8.72 44.99-6.96 46.08-5.73 47.17-4.49 48.59-3.82 50.02-3.15 51.63-3.15L51.63-3.15Q53.32-3.15 54.77-3.81 56.22-4.47 57.3-5.7 58.37-6.93 58.98-8.69 59.59-10.45 59.59-12.65L59.59-12.65Q59.59-14.94 58.98-16.72 58.37-18.51 57.31-19.7 56.25-20.9 54.78-21.51 53.32-22.12 51.63-22.12L51.63-22.12Q50.02-22.12 48.59-21.51 47.17-20.9 46.08-19.7 44.99-18.51 44.37-16.72 43.75-14.94 43.75-12.65ZM89.2-26.95Q89.2-29.1 88.42-30.18 87.64-31.25 86.7-31.82 85.76-32.4 84.64-32.7 83.52-33.01 82.39-33.01L82.39-33.01Q80.54-33.01 79.15-32.58 77.75-32.15 76.84-31.42 75.92-30.69 75.46-29.71 75-28.74 75-27.66L75-27.66Q75-26.05 75.57-25.06 76.14-24.07 77.02-23.47 77.9-22.88 78.96-22.53 80.02-22.19 81-21.85L81-21.85 85.93-20.24Q88.15-19.53 89.85-18.63 91.55-17.72 92.7-16.49 93.84-15.26 94.44-13.65 95.04-12.04 95.04-9.91L95.04-9.91Q95.04-7.62 94.1-5.66 93.16-3.71 91.47-2.27 89.79-0.83 87.46-0.01 85.13 0.81 82.34 0.81L82.34 0.81Q79.49 0.81 77.46 0.16 75.43-0.49 74.06-1.57 72.68-2.66 71.85-4.05 71.02-5.44 70.55-6.91L70.55-6.91 68.7-6.91 68.7-11.11 74.85-11.11Q74.85-8.4 75.42-7.28 76-6.15 77.02-5.41 78.05-4.66 79.46-4.28 80.88-3.91 82.59-3.91L82.59-3.91Q84.25-3.91 85.58-4.3 86.91-4.69 87.85-5.43 88.79-6.18 89.29-7.24 89.79-8.3 89.79-9.64L89.79-9.64Q89.79-11.13 89.17-12.17 88.54-13.21 87.57-13.94 86.59-14.67 85.43-15.14 84.27-15.6 83.2-15.94L83.2-15.94 77.85-17.46Q76.09-17.99 74.64-18.82 73.19-19.65 72.15-20.85 71.11-22.05 70.55-23.65 69.99-25.24 69.99-27.34L69.99-27.34Q69.99-29.47 70.82-31.32 71.65-33.18 73.26-34.57 74.87-35.96 77.2-36.76 79.54-37.55 82.54-37.55L82.54-37.55Q84.52-37.55 86.19-37.08 87.86-36.62 89.22-35.78 90.57-34.94 91.61-33.75 92.65-32.57 93.35-31.15L93.35-31.15 95.19-31.15 95.19-26.95 89.2-26.95ZM106.05-33.45L106.05-25.29 111.98-25.29 111.98-21.61 106-21.61 105.93-7.01Q105.93-5.52 106.27-4.59 106.61-3.66 107.37-3.31 108.12-2.95 109.07-2.95L109.07-2.95Q110.1-2.95 110.88-3.14 111.66-3.32 112.59-3.76L112.59-3.76 113.64-0.71Q112.47-0.1 111.17 0.26 109.88 0.61 108.12 0.61L108.12 0.61Q106.46 0.61 105.23 0.21 104-0.2 103.15-1.15 102.31-2.1 101.9-3.7 101.48-5.3 101.48-7.69L101.48-7.69 101.56-21.61 97.53-21.61 97.53-25.29 101.6-25.29 101.6-31.35 106.05-33.45ZM132.56-21.09L132.56-25.29 140.71-25.29 140.71-4.2 143.52-4.2 143.52 0 136.15 0 136.15-2.34Q134.44-1.03 132.42-0.29 130.41 0.44 128.12 0.44L128.12 0.44Q126.21 0.44 124.66-0.11 123.11-0.66 122.02-1.82 120.94-2.98 120.35-4.76 119.77-6.54 119.77-9.01L119.77-9.01 119.77-21.09 116.35-21.09 116.35-25.29 124.5-25.29 124.5-9.55Q124.5-6.64 125.84-5.15 127.19-3.66 129.7-3.66L129.7-3.66Q131.19-3.66 132.84-4.2 134.49-4.74 135.95-5.69L135.95-5.69 135.95-21.09 132.56-21.09ZM165.2-33.79L165.2-37.99 173.18-37.99 173.18-4.2 176.89-4.2 176.89 0 168.64 0 168.64-2.08Q167.42-0.83 165.81-0.13 164.2 0.56 162.15 0.56L162.15 0.56Q159.58 0.56 157.37-0.33 155.16-1.22 153.54-2.94 151.92-4.66 151-7.17 150.09-9.67 150.09-12.89L150.09-12.89Q150.09-15.82 150.96-18.23 151.84-20.63 153.45-22.33 155.07-24.02 157.34-24.96 159.61-25.9 162.39-25.9L162.39-25.9Q164.22-25.9 165.73-25.5 167.25-25.1 168.64-24.1L168.64-24.1 168.64-33.79 165.2-33.79ZM162.73-3.39L162.73-3.39Q164.76-3.39 166.13-3.99 167.49-4.59 168.64-5.79L168.64-5.79 168.64-19.95Q167.42-20.97 165.83-21.44 164.25-21.9 162.59-21.9L162.59-21.9Q160.97-21.9 159.56-21.3 158.14-20.7 157.08-19.56 156.02-18.41 155.41-16.75 154.8-15.09 154.8-12.94L154.8-12.94Q154.8-10.6 155.38-8.81 155.97-7.03 157.02-5.82 158.07-4.61 159.53-4 161-3.39 162.73-3.39ZM179.55-21.09L179.55-25.29 189.15-25.29 189.15-21.09 186.14-21.09 192.07-4.96 198.28-21.09 195.3-21.09 195.3-25.29 204.89-25.29 204.89-21.09 202.28-21.09 191.03 7.3 194.49 7.3 194.49 11.5 184.29 11.5 184.29 7.3 187.36 7.3 190.05 0.34 181.6-21.09 179.55-21.09ZM207.5 0Q207.5 0 207.5 0ZM253.45-27.25L248.2-27.25Q246.56-30.03 243.86-31.62 241.17-33.2 237.85-33.2L237.85-33.2Q235.01-33.2 232.67-32.01 230.33-30.81 228.65-28.8 226.98-26.78 226.05-24.13 225.13-21.48 225.13-18.55L225.13-18.55Q225.13-15.09 226.15-12.41 227.18-9.74 228.83-7.97 230.47-6.2 232.74-5.02 235.01-3.83 237.85-3.83L237.85-3.83Q241.7-3.83 244.56-5.7 247.42-7.57 249.44-11.84L249.44-11.84 253.74-9.81Q252.81-7.18 250.59-4.72 248.37-2.27 245.11-0.77 241.85 0.73 237.9 0.73L237.9 0.73Q234.11 0.73 230.94-0.7 227.76-2.12 225.29-4.76 222.81-7.4 221.5-11.01 220.19-14.62 220.19-18.55L220.19-18.55Q220.19-22.51 221.5-26.03 222.81-29.54 225.16-32.14 227.52-34.74 230.78-36.24 234.04-37.74 237.85-37.74L237.85-37.74Q241.24-37.74 243.71-36.78 246.17-35.82 247.89-34.48 249.61-33.15 250.86-31.59L250.86-31.59 253.45-31.59 253.45-27.25ZM257.52-33.79L257.52-37.99 265.72-37.99 265.72-4.2 269.53-4.2 269.53 0 257.52 0 257.52-4.2 261.18-4.2 261.18-33.79 257.52-33.79ZM273.63-12.65L273.63-12.65Q273.66-15.65 274.6-18.12 275.54-20.58 277.22-22.35 278.91-24.12 281.23-25.07 283.54-26.03 286.33-26.03L286.33-26.03Q289.14-26.03 291.47-25.07 293.8-24.12 295.46-22.38 297.12-20.63 298.05-18.16 298.97-15.7 298.97-12.7L298.97-12.7Q298.97-9.74 298.05-7.26 297.12-4.79 295.46-3 293.8-1.22 291.47-0.23 289.14 0.76 286.33 0.76L286.33 0.76Q283.47 0.76 281.15-0.22 278.83-1.2 277.17-2.97 275.51-4.74 274.58-7.2 273.66-9.67 273.63-12.65ZM278.44-12.65L278.44-12.65Q278.44-10.47 279.06-8.72 279.69-6.96 280.77-5.73 281.86-4.49 283.29-3.82 284.72-3.15 286.33-3.15L286.33-3.15Q288.01-3.15 289.46-3.81 290.92-4.47 291.99-5.7 293.07-6.93 293.68-8.69 294.29-10.45 294.29-12.65L294.29-12.65Q294.29-14.94 293.68-16.72 293.07-18.51 292-19.7 290.94-20.9 289.48-21.51 288.01-22.12 286.33-22.12L286.33-22.12Q284.72-22.12 283.29-21.51 281.86-20.9 280.77-19.7 279.69-18.51 279.06-16.72 278.44-14.94 278.44-12.65ZM319.11-21.09L319.11-25.29 327.27-25.29 327.27-4.2 330.08-4.2 330.08 0 322.7 0 322.7-2.34Q320.99-1.03 318.98-0.29 316.96 0.44 314.67 0.44L314.67 0.44Q312.77 0.44 311.22-0.11 309.66-0.66 308.58-1.82 307.49-2.98 306.91-4.76 306.32-6.54 306.32-9.01L306.32-9.01 306.32-21.09 302.9-21.09 302.9-25.29 311.06-25.29 311.06-9.55Q311.06-6.64 312.4-5.15 313.74-3.66 316.26-3.66L316.26-3.66Q317.75-3.66 319.39-4.2 321.04-4.74 322.51-5.69L322.51-5.69 322.51-21.09 319.11-21.09ZM351.75-33.79L351.75-37.99 359.74-37.99 359.74-4.2 363.45-4.2 363.45 0 355.19 0 355.19-2.08Q353.97-0.83 352.36-0.13 350.75 0.56 348.7 0.56L348.7 0.56Q346.14 0.56 343.93-0.33 341.72-1.22 340.09-2.94 338.47-4.66 337.56-7.17 336.64-9.67 336.64-12.89L336.64-12.89Q336.64-15.82 337.52-18.23 338.4-20.63 340.01-22.33 341.62-24.02 343.89-24.96 346.16-25.9 348.94-25.9L348.94-25.9Q350.78-25.9 352.29-25.5 353.8-25.1 355.19-24.1L355.19-24.1 355.19-33.79 351.75-33.79ZM349.29-3.39L349.29-3.39Q351.31-3.39 352.68-3.99 354.05-4.59 355.19-5.79L355.19-5.79 355.19-19.95Q353.97-20.97 352.39-21.44 350.8-21.9 349.14-21.9L349.14-21.9Q347.53-21.9 346.11-21.3 344.7-20.7 343.63-19.56 342.57-18.41 341.96-16.75 341.35-15.09 341.35-12.94L341.35-12.94Q341.35-10.6 341.94-8.81 342.52-7.03 343.57-5.82 344.62-4.61 346.09-4 347.55-3.39 349.29-3.39Z" opacity="1" transform="matrix(1,0,0,1,0,0)" fill="#5969ff" class="wordmark-text-0" data-fill-palette-color="primary" id="text-0"></path></svg></g></svg></g></svg></g></svg></g><g transform="matrix(1,0,0,1,160.36881097192222,0)"><svg viewBox="0 0 74.78237805615554 74.78237805615552" height="74.78237805615552" width="74.78237805615554"><g><svg></svg></g><g id="icon-0"><svg viewBox="0 0 74.78237805615554 74.78237805615552" height="74.78237805615552" width="74.78237805615554"><g><path transform="scale(0.74782,0.74782)" d="M30 100c-16.569 0-30-13.431-30-30v-40c0-16.569 13.431-30 30-30h40c16.569 0 30 13.431 30 30v40c0 16.569-13.431 30-30 30z" fill="#5969ff" fill-rule="nonzero" stroke="none" stroke-width="1" stroke-linecap="butt" stroke-linejoin="miter" stroke-miterlimit="10" stroke-dasharray="" stroke-dashoffset="0" font-family="none" font-weight="none" font-size="none" text-anchor="none" style="mix-blend-mode: normal" data-fill-palette-color="accent"></path></g><g transform="matrix(1,0,0,1,14.956475611231117,25.450614068607894)"><svg viewBox="0 0 44.8694268336933 23.881149918939734" height="23.881149918939734" width="44.8694268336933"><g><svg xmlns:x="http://ns.adobe.com/Extensibility/1.0/" xmlns:i="http://ns.adobe.com/AdobeIllustrator/10.0/" xmlns:graph="http://ns.adobe.com/Graphs/1.0/" xmlns="http://www.w3.org/2000/svg" xmlns:xlink="http://www.w3.org/1999/xlink" version="1.1" x="0" y="0" viewBox="0.19000000000000838 17.32600000000001 99.809 53.122" enable-background="new 0 0 100 100" xml:space="preserve" height="23.881149918939734" width="44.8694268336933" class="icon-cg-0" data-fill-palette-color="quaternary" id="cg-0"><path fill="#ffffff" d="M1.028 59.63h0.006l5.819 0.011 20.26 0.039 5.818 0.012 7.969 0.016 0.915 0.002c0.3 0.016 0.604 0.025 0.908 0.025V59.71l1.822 0.004c0.014-0.002 0.029-0.004 0.044-0.006l6.146 0.017c2.443 6.268 8.539 10.723 15.66 10.723 7.097 0 13.178-4.426 15.635-10.66l1.146 0.002 11.702 0.021 0.427-0.429c2.903-3.021 4.694-7.12 4.694-11.632 0-8.281-6.026-15.179-13.922-16.55-0.017-0.003-0.033-0.004-0.05-0.007-1.396-7.869-8.276-13.867-16.539-13.867-7.784 0-14.346 5.323-16.245 12.52-2.882-2.322-6.541-3.716-10.521-3.716-8.367 0-15.324 6.149-16.594 14.165-2.631-1.712-5.768-2.712-9.136-2.712-9.264 0-16.802 7.538-16.802 16.802 0 1.824 0.296 3.582 0.837 5.227L1.028 59.63 1.028 59.63zM42.724 31.504c6.301 0 11.426 5.125 11.426 11.427h5.377c0-0.313-0.012-0.624-0.027-0.933-0.006-0.089-0.016-0.177-0.021-0.266-0.016-0.224-0.033-0.448-0.059-0.67-0.01-0.083-0.021-0.164-0.031-0.246-0.031-0.243-0.065-0.485-0.106-0.724-0.007-0.042-0.015-0.083-0.021-0.124-0.152-0.84-0.363-1.658-0.635-2.45l-0.562-3.392c0-6.301 5.125-11.427 11.427-11.427 5.312 0 9.788 3.644 11.063 8.563 0.016-0.003 0.033-0.005 0.051-0.007 0.221 0.884 0.34 1.808 0.34 2.76 0 0.893-0.106 1.762-0.301 2.597 0.82-0.188 1.676-0.291 2.555-0.291 1.004 0 1.977 0.131 2.904 0.375 4.899 1.288 8.522 5.754 8.522 11.051 0 2.549-0.84 4.905-2.257 6.81l-14.596-0.02c0.004 0.012 0.011 0.023 0.015 0.033-0.093 1.246-0.381 2.354-0.843 3.457-1.723 4.129-5.803 7.039-10.549 7.039-6.019 0-10.959-4.674-11.393-10.582 0 0 0 0 0-0.002l0 0c-0.002-0.021-0.005-0.041-0.006-0.062l-5.385-0.011c0.001 0.021 0.003 0.043 0.004 0.064l-7.484-0.017c-6.028-0.313-10.837-5.427-10.837-11.53C31.296 36.63 36.422 31.504 42.724 31.504zM16.994 42.956c4.318 0 8.083 2.408 10.025 5.95-0.009-0.027-0.018-0.053-0.027-0.08 0.791 2.104 1.993 4.006 3.507 5.613h-0.047l-2.032-0.004L5.567 54.391c0-0.002 0-0.004 0-0.008C5.567 48.082 10.693 42.956 16.994 42.956zM26.771 48.195c0.007 0.02 0.014 0.04 0.021 0.06C26.784 48.235 26.777 48.215 26.771 48.195z" data-fill-palette-color="quaternary"></path></svg><g></g></g></svg></g></svg></g></svg></g><g></g></svg></g><defs></defs></svg><rect width="395.52" height="141.6685594875162" fill="none" stroke="none" visibility="hidden"></rect></g></svg></g></svg>